<svg width="43" height="49" viewBox="0 0 43 49" fill="none" xmlns="http://www.w3.org/2000/svg">
<path d="M30.632 23.072C31.64 25.984 33.04 27.8507 34.832 28.672C36.624 29.4933 38.7893 29.3627 41.328 28.28C40.6187 29.9227 40.2267 31.5093 40.152 33.04C40.1147 34.5333 40.5067 35.9893 41.328 37.408C39.9093 36.96 38.4907 37.24 37.072 38.248C35.2053 40.0773 33.0773 41.5333 30.688 42.616C28.2987 43.6987 25.6107 44.4453 22.624 44.856C26.8053 43.5493 29.624 41.888 31.08 39.872C32.536 37.856 32.5547 35.4293 31.136 32.592L21.168 8.00801L10.192 35.616C9.48267 39.536 12.6747 42.6907 19.768 45.08C16.5947 44.5573 13.8133 43.7547 11.424 42.672C9.03467 41.5893 7.056 40.1893 5.488 38.472C4.29333 37.1653 2.87467 36.848 1.232 37.52C1.82933 36.0267 2.09067 34.5147 2.016 32.984C1.97867 31.416 1.64267 29.848 1.008 28.28C3.136 29.3253 5.04 29.568 6.72 29.008C8.4 28.4107 9.87467 26.936 11.144 24.584L21.168 8.10623e-06L30.632 23.072ZM9.87202e-07 38.248C2.016 40.4133 4.23733 42.2053 6.664 43.624C9.128 45.0053 11.8533 45.9947 14.84 46.592C17.9013 47.04 20.0107 46.424 21.168 44.744C22.064 45.9387 23.632 46.592 25.872 46.704C30.8373 46.704 36.3627 43.8853 42.448 38.248C37.8933 43.4 32.8347 46.6853 27.272 48.104C26.3013 48.328 25.2747 48.4773 24.192 48.552C23.1093 48.6267 21.9707 48.664 20.776 48.664C19.9173 48.664 19.0773 48.6267 18.256 48.552C17.4347 48.5147 16.632 48.4027 15.848 48.216C10.7333 47.6933 5.45067 44.3707 9.87202e-07 38.248Z" fill="#B6B6B6"/>
</svg>
